<?xml version="1.0" encoding="UTF-8"?>
<svg width="32px" height="32px" viewBox="0 0 32 32" version="1.1" xmlns="http://www.w3.org/2000/svg" xmlns:xlink="http://www.w3.org/1999/xlink">
    <title>添加就餐人</title>
    <g id="切图" stroke="none" stroke-width="1" fill="none" fill-rule="evenodd">
        <g id="添加就餐人" fill="#8871E5" fill-rule="nonzero">
            <path d="M26,0 C29.3137085,-6.08718376e-16 32,2.6862915 32,6 L32,26 C32,29.3137085 29.3137085,32 26,32 L6,32 C2.6862915,32 4.05812251e-16,29.3137085 0,26 L0,6 C-4.05812251e-16,2.6862915 2.6862915,6.08718376e-16 6,0 L26,0 Z M26,2 L6,2 C3.85780461,2 2.10892112,3.68396847 2.00489531,5.80035966 L2,6 L2,26 C2,28.1421954 3.68396847,29.8910789 5.80035966,29.9951047 L6,30 L26,30 C28.1421954,30 29.8910789,28.3160315 29.9951047,26.1996403 L30,26 L30,6 C30,3.790861 28.209139,2 26,2 Z M15.9142602,4.01918966 C16.5178758,4.00199885 16.9193725,4.34173372 17.0684292,4.90128478 C17.1645727,5.26202404 17.1574819,5.65640013 17.15775,6.03573053 C17.1624872,12.628339 17.1622786,19.2209475 17.158197,25.8135857 C17.1579586,26.1935715 17.1676415,26.5863388 17.0793039,26.9505341 C16.9425221,27.5144946 16.5569351,27.8587283 15.9467351,27.8556799 C15.3443411,27.852561 14.9376007,27.5388359 14.8183672,26.955599 C14.7333665,26.5397716 14.7293145,26.1029398 14.7278249,25.6753738 L14.7229015,22.2357481 L14.7229015,22.2357481 L14.7239219,18.7961224 L14.7238921,17.1671349 L10.2396778,17.1671052 C8.85428169,17.1671052 7.46885577,17.1693397 6.08345968,17.1653771 C5.74965369,17.1644237 5.4081312,17.1839683 5.08388894,17.1220872 C4.46072884,17.0031517 4.03214984,16.6406844 4.01999411,15.9652666 C4.00780856,15.2880909 4.41597903,14.8994054 5.04715358,14.7876203 C5.46596031,14.7134644 5.90303043,14.7282419 6.33193715,14.7275567 C7.23766841,14.7260273 8.14339967,14.725256 9.05512493,14.7249073 L14.6453566,14.725203 C14.6748521,14.1749177 14.7189762,13.71875 14.7204063,13.2624929 C14.7277057,10.9216502 14.7202871,8.58077765 14.7274971,6.23993492 C14.7288081,5.811922 14.7284207,5.37514981 14.8099059,4.95827966 C14.9227039,4.38106108 15.3141007,4.03623152 15.9142602,4.01918966 Z M26.5059561,14.7469821 C27.3889748,14.7960221 27.8417759,15.2362503 27.8541997,15.9210531 C27.8668024,16.6134532 27.4090258,17.122117 26.5557112,17.1426745 C24.6490784,17.1885267 22.7397642,17.1878712 20.8331612,17.1408869 C20.0203359,17.1208657 19.5123276,16.5518105 19.5388438,15.8998997 C19.565211,15.2523984 20.069525,14.7869947 20.9268617,14.7448965 C21.8784649,14.6981506 22.8341201,14.7342305 23.7880175,14.7350349 C24.6942155,14.7358393 25.6025586,14.6967503 26.5059561,14.7469821 Z"></path>
        </g>
    </g>
</svg>