<?xml version="1.0" encoding="UTF-8"?>
<svg width="40px" height="35px" viewBox="0 0 40 35" version="1.1" xmlns="http://www.w3.org/2000/svg" xmlns:xlink="http://www.w3.org/1999/xlink">
    <title>微信logo</title>
    <g id="切图" stroke="none" stroke-width="1" fill="none" fill-rule="evenodd">
        <g id="微信logo" fill="#09BB07" fill-rule="nonzero">
            <g id="路径">
                <path d="M14.5553026,22.0975392 C14.3715056,22.1907321 14.1833024,22.2352105 13.9548336,22.2352105 C13.4438959,22.2352105 13.0271301,21.9598679 12.7940206,21.546854 L12.6999893,21.3649866 L9.03876916,13.4618064 C8.99395664,13.3686135 8.99395664,13.279892 8.99395664,13.1866991 C8.99395664,12.8181636 9.27183175,12.542821 9.64378502,12.542821 C9.78276945,12.542821 9.92166013,12.5872523 10.0606446,12.6804452 L14.3715056,15.7129794 C14.6941932,15.8948467 15.0661934,16.0325651 15.4828185,16.0325651 C15.7158811,16.0325651 15.9445375,15.9880866 16.1776001,15.8948467 L36.3926861,6.98400659 C32.7763253,2.75719152 26.7981198,0 20.0269766,0 C8.99395664,0 0,7.39697345 0,16.5343946 C0,21.4937623 2.68879793,25.9956846 6.90576832,29.0282188 C7.22826845,29.2590829 7.46133104,29.6720969 7.46133104,30.0848755 C7.46133104,30.2225468 7.41647165,30.3602181 7.36729975,30.4978894 C7.04475275,31.7366017 6.48459628,33.7612406 6.48459628,33.8501504 C6.43969002,33.9875864 6.39023687,34.1697361 6.39023687,34.3561219 C6.39023687,34.7246574 6.66815885,35 7.040159,35 C7.17904968,35 7.31803411,34.9555686 7.41211227,34.8623287 L11.7678327,32.3360484 C12.0905672,32.1538987 12.4625205,32.0162745 12.8345206,32.0162745 C13.0180832,32.0162745 13.2511927,32.0607058 13.4349896,32.1094673 C15.4738654,32.7045839 17.7011788,33.0286881 19.9731172,33.0286881 C31.006184,33.0286881 40,25.6317146 40,16.4942934 C40,13.7371019 39.1665622,11.1219119 37.7281085,8.82221272 L14.6941932,22.0042992 L14.5553026,22.0974921 L14.5553026,22.0975392 Z"></path>
            </g>
        </g>
    </g>
</svg>