<svg t="1594349274451" class="icon" viewBox="0 0 1024 1024" version="1.1" xmlns="http://www.w3.org/2000/svg" p-id="8384" width="200" height="200"><path d="M330.872832 380.162048c18.694144 0 31.240192-12.709888 31.240192-31.643648 0-19.021824-12.546048-31.561728-31.240192-31.561728-18.686976 0-37.549056 12.539904-37.549056 31.561728 0 18.93376 18.86208 31.643648 37.55008 31.643648z m174.630912-63.207424c-18.694144 0-37.46816 12.540928-37.46816 31.562752 0 18.93376 18.774016 31.643648 37.46816 31.643648 18.84672 0 31.31392-12.709888 31.31392-31.643648 0-19.0208-12.4672-31.562752-31.31392-31.562752zM723.90656 550.92736c18.77504 0 31.311872-12.547072 31.311872-25.25184 0-12.62592-12.536832-25.334784-31.311872-25.334784-12.297216 0-24.68352 12.709888-24.68352 25.33376 0 12.705792 12.386304 25.25184 24.68352 25.25184z m-137.2416 0c18.93376 0 31.232-12.547072 31.232-25.25184 0-12.62592-12.29824-25.334784-31.232-25.334784-12.378112 0-24.923136 12.709888-24.923136 25.33376 0 12.705792 12.544 25.25184 24.92416 25.25184z m-563.637248-38.20544c0 271.683584 220.2112 491.88352 491.900928 491.88352S1006.82752 784.40448 1006.82752 512.72192 786.617344 20.842496 514.92864 20.842496c-271.690752 0-491.900928 220.196864-491.900928 491.879424z m616.6784-127.232c-118.54848 0-212.1728 89.684992-212.1728 200.114176 0 18.446336 2.874368 36.154368 7.71072 53.039104-7.71072 0.65536-15.420416 0.984064-23.282688 0.984064-31.16032 0-56.2432-6.392832-87.396352-12.705792l-87.235584 44.352512 24.923136-76.079104c-62.472192-44.26752-99.852288-101.246976-99.852288-170.684416 0-120.344576 112.39936-215.11168 249.561088-215.11168 122.7264 0 230.21056 75.746304 251.763712 177.568768-7.863296-0.90112-15.901696-1.477632-24.018944-1.477632z m227.751936 197.159936c0 56.977408-37.300224 107.47904-87.396352 145.512448l18.77504 63.291392-68.453376-37.956608c-25.012224 6.31296-50.00704 12.62592-74.858496 12.62592-118.7072 0-212.332544-82.2272-212.332544-183.4752 0-101.16096 93.625344-183.549952 212.332544-183.549952 112.07168 0.002048 211.933184 82.39104 211.933184 183.552z" p-id="8385"></path></svg>
